<?xml version="1.0" encoding="UTF-8" standalone="no"?>
<svg width="64px" height="64px" viewBox="0 0 64 64" version="1.1" xmlns="http://www.w3.org/2000/svg" xmlns:xlink="http://www.w3.org/1999/xlink" xmlns:sketch="http://www.bohemiancoding.com/sketch/ns">
    <!-- Generator: Sketch 3.3.3 (12081) - http://www.bohemiancoding.com/sketch -->
    <title>favicon-pin</title>
    <desc>Created with Sketch.</desc>
    <defs></defs>
    <g id="Page-1" stroke="none" stroke-width="1" fill="none" fill-rule="evenodd" sketch:type="MSPage">
        <g id="favicon-pin" sketch:type="MSArtboardGroup" fill="#D8D8D8">
            <path d="M0,12.0003513 C0,5.3727403 5.37395589,0 12.0003513,0 L51.9996487,0 C58.6272597,0 64,5.37395589 64,12.0003513 L64,51.9996487 C64,58.6272597 58.6260441,64 51.9996487,64 L12.0003513,64 C5.3727403,64 0,58.6260441 0,51.9996487 L0,12.0003513 Z M9.375,49 L15.6875,49 L15.6875,28.40625 C15.6875,23.96875 18.5625,21.1875 22.5,21.1875 C26.53125,21.1875 29.15625,23.75 29.15625,28.03125 L29.15625,49 L35.34375,49 L35.34375,28.46875 C35.34375,24.0625 38.34375,21.1875 42.25,21.1875 C46.4375,21.1875 48.78125,23.65625 48.78125,27.84375 L48.78125,49 L55.09375,49 L55.09375,25.875 C55.09375,19.3125 51.03125,15.5 44.3125,15.5 C38.71875,15.5 35.5625,18.53125 34.28125,21.6875 L34,21.6875 C32.96875,18.15625 29.875,15.5 24.875,15.5 C18.84375,15.5 16.6875,18.96875 15.9375,21.34375 L15.625,21.34375 L15.625,16 L9.375,16 L9.375,49 Z" id="Rectangle-1" sketch:type="MSShapeGroup"></path>
        </g>
    </g>
</svg>