<?xml version="1.0" encoding="UTF-8" standalone="no"?>
<svg width="81px" height="81px" viewBox="0 0 81 81" version="1.1" xmlns="http://www.w3.org/2000/svg" xmlns:xlink="http://www.w3.org/1999/xlink" xmlns:sketch="http://www.bohemiancoding.com/sketch/ns">
    <!-- Generator: Sketch 3.3.3 (12081) - http://www.bohemiancoding.com/sketch -->
    <title>icon@1,5x</title>
    <desc>Created with Sketch.</desc>
    <defs>
        <path id="path-1" d="M27.1999995,0 C18.3333333,0 15.5,-6.22437331e-09 11.5,1.33333333 C6.78666687,3 3,6.78666687 1.33333333,11.5 C0,15.5 0,18.3333333 0,27.1999995 C0,27.1999995 4.9519547e-08,52.799998 0,52.799998 C4.9519547e-08,61.6666667 3.97330903e-08,64.5 1.33333333,68.5 C3.00309245,73.2133331 6.78666687,77 11.5,78.6666667 C15.5,80 18.3333333,80 27.1999995,80 L52.799998,80 C61.6666667,80 64.5,80 68.5,78.6666667 C73.2133331,77 77,73.2133331 78.6666667,68.5 C80,64.5 80,61.6666667 80,52.799998 L80,27.1999995 C80,18.3333333 80,15.5 78.6666667,11.5 C77,6.83333333 73.1599986,3 68.4933319,1.33333333 C64.4933319,3.73527579e-09 61.6666667,1.4071001e-08 52.799998,0 C57.4666646,1.4071001e-08 27.1999995,0 27.1999995,0 Z"></path>
    </defs>
    <g id="Page-1" stroke="none" stroke-width="1" fill="none" fill-rule="evenodd" sketch:type="MSPage">
        <g id="Desktop" sketch:type="MSArtboardGroup" transform="translate(-472.000000, -158.000000)">
            <g id="icon" sketch:type="MSLayerGroup" transform="translate(472.000000, 158.000000)">
                <g id="Grid" fill="#5BADF0" sketch:type="MSShapeGroup">
                    <g>
                        <path d="M40.6666667,76 C60.1807288,76 76,60.1807288 76,40.6666667 C76,21.1526045 60.1807288,5.33333333 40.6666667,5.33333333 C21.1526045,5.33333333 5.33333333,21.1526045 5.33333333,40.6666667 C5.33333333,60.1807288 21.1526045,76 40.6666667,76 Z M40.6666667,75.3205128 C59.8054584,75.3205128 75.3205128,59.8054584 75.3205128,40.6666667 C75.3205128,21.527875 59.8054584,6.01282051 40.6666667,6.01282051 C21.527875,6.01282051 6.01282051,21.527875 6.01282051,40.6666667 C6.01282051,59.8054584 21.527875,75.3205128 40.6666667,75.3205128 Z M40.6666667,62 C52.4487419,62 62,52.4487419 62,40.6666667 C62,28.8845914 52.4487419,19.3333333 40.6666667,19.3333333 C28.8845914,19.3333333 19.3333333,28.8845914 19.3333333,40.6666667 C19.3333333,52.4487419 28.8845914,62 40.6666667,62 Z M40.6666667,61.3333333 C52.0805521,61.3333333 61.3333333,52.0805521 61.3333333,40.6666667 C61.3333333,29.2527813 52.0805521,20 40.6666667,20 C29.2527813,20 20,29.2527813 20,40.6666667 C20,52.0805521 29.2527813,61.3333333 40.6666667,61.3333333 Z M40.6666667,56 C49.1350332,56 56,49.1350332 56,40.6666667 C56,32.1983001 49.1350332,25.3333333 40.6666667,25.3333333 C32.1983001,25.3333333 25.3333333,32.1983001 25.3333333,40.6666667 C25.3333333,49.1350332 32.1983001,56 40.6666667,56 Z M40.6666667,55.3333333 C48.7668434,55.3333333 55.3333333,48.7668434 55.3333333,40.6666667 C55.3333333,32.5664899 48.7668434,26 40.6666667,26 C32.5664899,26 26,32.5664899 26,40.6666667 C26,48.7668434 32.5664899,55.3333333 40.6666667,55.3333333 Z" id="Circles"></path>
                        <path d="M75.3333333,5.33333333 L62,5.33333333 L62,0.666666667 L61.3333333,0.666666667 L61.3333333,5.33333333 L56,5.33333333 L56,0.666666667 L55.3333333,0.666666667 L55.3333333,5.33333333 L55.3333333,5.33333333 L26,5.33333333 L26,0.666666667 L25.3333333,0.666666667 L25.3333333,5.33333333 L20,5.33333333 L20,0.666666667 L19.3333333,0.666666667 L19.3333333,5.33333333 L19.3333333,5.33333333 L6,5.33333333 L6,0.666666667 L5.33333333,0.666666667 L5.33333333,4.86192881 L1.06868692,0.597282399 L0.597282399,1.06868692 L4.86192881,5.33333333 L0.666666667,5.33333333 L0.666666667,6 L5.33333333,6 L5.33333333,19.3333333 L0.666666667,19.3333333 L0.666666667,20 L5.33333333,20 L5.33333333,25.3333333 L0.666666667,25.3333333 L0.666666667,26 L5.33333333,26 L5.33333333,55.3333333 L0.666666667,55.3333333 L0.666666667,56 L5.33333333,56 L5.33333333,61.3333333 L0.666666667,61.3333333 L0.666666667,62 L5.33333333,62 L5.33333333,62 L5.33333333,75.3333333 L0.666666667,75.3333333 L0.666666667,76 L4.86192881,76 L0.597282399,80.2646464 L1.06868692,80.7360509 L5.33333333,76.4714045 L5.33333333,80.6666667 L6,80.6666667 L6,76 L19.3333333,76 L19.3333333,80.6666667 L20,80.6666667 L20,76 L25.3333333,76 L25.3333333,76 L25.3333333,80.6666667 L26,80.6666667 L26,76 L55.3333333,76 L55.3333333,80.6666667 L56,80.6666667 L56,76 L61.3333333,76 L61.3333333,76 L61.3333333,80.6666667 L62,80.6666667 L62,76 L75.3333333,76 L75.3333333,80.6666667 L76,80.6666667 L76,76.4714045 L80.2646464,80.7360509 L80.7360509,80.2646464 L76.4714045,76 L80.6666667,76 L80.6666667,75.3333333 L76,75.3333333 L76,62 L80.6666667,62 L80.6666667,61.3333333 L76,61.3333333 L76,56 L80.6666667,56 L80.6666667,55.3333333 L76,55.3333333 L76,26 L80.6666667,26 L80.6666667,25.3333333 L76,25.3333333 L76,20 L80.6666667,20 L80.6666667,19.3333333 L76,19.3333333 L76,6 L80.6666667,6 L80.6666667,5.33333333 L76.4714045,5.33333333 L80.7360509,1.06868692 L80.2646464,0.597282399 L76,4.86192881 L76,0.666666667 L75.3333333,0.666666667 L75.3333333,5.33333333 Z M75.3333333,6.47140452 L62.4714045,19.3333333 L75.3333333,19.3333333 L75.3333333,6.47140452 Z M75.3333333,20 L62,20 L62,25.3333333 L75.3333333,25.3333333 L75.3333333,20 Z M75.3333333,26 L62,26 L62,55.3333333 L75.3333333,55.3333333 L75.3333333,26 Z M75.3333333,56 L62,56 L62,61.3333333 L75.3333333,61.3333333 L75.3333333,56 Z M75.3333333,62 L62.4714045,62 L75.3333333,74.8619288 L75.3333333,62 Z M61.3333333,60.8619288 L56.4714045,56 L61.3333333,56 L61.3333333,60.8619288 L61.3333333,60.8619288 Z M61.3333333,55.3333333 L56,55.3333333 L56,26 L61.3333333,26 L61.3333333,55.3333333 L61.3333333,55.3333333 Z M61.3333333,25.3333333 L56.4714045,25.3333333 L56.4714045,25.3333333 L61.3333333,20.4714045 L61.3333333,25.3333333 L61.3333333,25.3333333 Z M61.3333333,62 L56,62 L56,62 L56,75.3333333 L61.3333333,75.3333333 L61.3333333,62 L61.3333333,62 Z M62,62.4714045 L74.8619288,75.3333333 L62,75.3333333 L62,62.4714045 L62,62.4714045 Z M61.3333333,6 L56,6 L56,19.3333333 L61.3333333,19.3333333 L61.3333333,6 L61.3333333,6 Z M62,6 L74.8619288,6 L62,18.8619288 L62,6 L62,6 Z M55.3333333,26.4714045 L41.1380712,40.6666667 L55.3333333,54.8619288 L55.3333333,26.4714045 L55.3333333,26.4714045 Z M55.3333333,62 L26,62 L26,76 L26,75.3333333 L55.3333333,75.3333333 L55.3333333,62 L55.3333333,62 Z M55.3333333,6 L26,6 L26,6 L26,19.3333333 L55.3333333,19.3333333 L55.3333333,6 L55.3333333,6 Z M55.3333333,56 L26,56 L26,61.3333333 L55.3333333,61.3333333 L55.3333333,56 L55.3333333,56 Z M56,56.4714045 L60.8619288,61.3333333 L60.8619288,61.3333333 L56,61.3333333 L56,56.4714045 L56,56.4714045 Z M55.3333333,20 L26,20 L26,20 L26,25.3333333 L55.3333333,25.3333333 L55.3333333,20 L55.3333333,20 Z M56,20 L60.8619288,20 L56,24.8619288 L56,20 L56,20 Z M56,25.3333333 L56.4714045,25.3333333 L56,25.3333333 L56,25.3333333 L56,25.3333333 Z M55.3333333,26 L54.8619288,26 L40.6666667,40.1952621 L26.4714045,26 L55.3333333,26 L55.3333333,26 L55.3333333,26 Z M25.3333333,55.3333333 L20,55.3333333 L20,26 L25.3333333,26 L25.3333333,55.3333333 L25.3333333,55.3333333 Z M26,54.8619288 L40.1952621,40.6666667 L40.1952621,40.6666667 L26,26.4714045 L26,54.8619288 L26,54.8619288 Z M25.3333333,62 L20,62 L20,62 L20,75.3333333 L25.3333333,75.3333333 L25.3333333,76 L25.3333333,62 Z M25.3333333,6 L20,6 L20,6 L20,19.3333333 L25.3333333,19.3333333 L25.3333333,6 L25.3333333,6 Z M25.3333333,56.4714045 L20.4714045,61.3333333 L25.3333333,61.3333333 L25.3333333,56.4714045 L25.3333333,56.4714045 Z M25.3333333,24.8619288 L20.4714045,20 L20.4714045,20 L25.3333333,20 L25.3333333,24.8619288 L25.3333333,24.8619288 Z M19.3333333,61.3333333 L6,61.3333333 L6,61.3333333 L6,56 L19.3333333,56 L19.3333333,61.3333333 L19.3333333,61.3333333 Z M20,60.8619288 L24.8619288,56 L20,56 L20,60.8619288 L20,60.8619288 Z M19.3333333,55.3333333 L6,55.3333333 L6,55.3333333 L6,26 L19.3333333,26 L19.3333333,55.3333333 Z M19.3333333,25.3333333 L6,25.3333333 L6,25.3333333 L6,20 L19.3333333,20 L19.3333333,25.3333333 L19.3333333,25.3333333 Z M20,25.3333333 L24.8619288,25.3333333 L20,20.4714045 L20,25.3333333 L20,25.3333333 Z M19.3333333,62.4714045 L6.47140452,75.3333333 L6.47140452,75.3333333 L19.3333333,75.3333333 L19.3333333,62.4714045 L19.3333333,62.4714045 Z M19.3333333,18.8619288 L6.47140452,6 L6.47140452,6 L19.3333333,6 L19.3333333,18.8619288 L19.3333333,18.8619288 Z M6,74.8619288 L18.8619288,62 L6,62 L6,74.8619288 L6,74.8619288 Z M6,19.3333333 L18.8619288,19.3333333 L18.8619288,19.3333333 L6,6.47140452 L6,19.3333333 Z M26.4714045,55.3333333 L40.6666667,41.1380712 L54.8619288,55.3333333 L26.4714045,55.3333333 L26.4714045,55.3333333 Z" id="Lines"></path>
                    </g>
                </g>
                <mask id="mask-2" sketch:name="Mask" fill="white">
                    <use xlink:href="#path-1"></use>
                </mask>
                <use id="Mask" sketch:type="MSShapeGroup" xlink:href="#path-1"></use>
            </g>
        </g>
    </g>
</svg>